<svg xmlns="http://www.w3.org/2000/svg" viewBox="0 0 90 90"><defs><style>.a,.b{fill:#cecece;}.a{opacity:0;}</style></defs><g transform="translate(1624 -757)"><rect class="a" width="90" height="90" transform="translate(-1624 757)"/><g transform="translate(-1620.25 764.5)"><path class="b" d="M73.918,23.532V12.181A12.289,12.289,0,0,0,61.737,0H20.763A12.236,12.236,0,0,0,8.582,11.9v4.153a2.774,2.774,0,0,0,2.768,2.768h0a2.774,2.774,0,0,0,2.768-2.768V11.9A6.394,6.394,0,0,1,20.763,5.26h41.25a6.854,6.854,0,0,1,6.921,6.921V23.532H64.782a10.967,10.967,0,0,0-10.52-8.305,10.728,10.728,0,0,0-10.52,8.305H9.413C3.876,23.809,0,27.685,0,32.391V51.216a8.986,8.986,0,0,0,8.029,8.859h0v1.938c0,5.814,4.153,11.074,9.966,11.628A11.059,11.059,0,0,0,30.176,62.567V60.076H52.6v2.492A11.133,11.133,0,0,0,64.5,73.641c5.814-.554,9.966-5.814,9.966-11.351V60.352h0A9.2,9.2,0,0,0,82.5,51.493V32.668a8.926,8.926,0,0,0-8.582-9.136Zm-20.21-3.045a5.708,5.708,0,0,1,4.983,3.045H48.725A5.23,5.23,0,0,1,53.708,20.487ZM24.639,62.567a6.018,6.018,0,0,1-5.26,6.091,5.59,5.59,0,0,1-6.091-5.814V60.352H24.639Zm44.572.277a5.744,5.744,0,0,1-6.091,5.814,6.018,6.018,0,0,1-5.26-6.091V60.629H69.211ZM77.24,51.216a3.785,3.785,0,0,1-3.876,3.876H9.136a3.665,3.665,0,0,1-3.6-3.6V32.668a3.959,3.959,0,0,1,3.876-3.876h64.5a3.665,3.665,0,0,1,3.6,3.6V51.216Z"/><path class="b" d="M12.205,12.1a8.305,8.305,0,0,0,0,16.611,8.157,8.157,0,0,0,8.305-8.305A8.516,8.516,0,0,0,12.205,12.1Zm0,11.351a3.045,3.045,0,1,1,3.045-3.045A3.072,3.072,0,0,1,12.205,23.451Z" transform="translate(6.897 17.961)"/><path class="b" d="M28.305,12.1A8.329,8.329,0,0,0,20,20.405a8.157,8.157,0,0,0,8.305,8.305,8.157,8.157,0,0,0,8.305-8.305A8.516,8.516,0,0,0,28.305,12.1Zm0,11.351a3.045,3.045,0,1,1,3.045-3.045A3.072,3.072,0,0,1,28.305,23.451Z" transform="translate(35.369 17.961)"/><path class="b" d="M28.288,12.1H14.168a2.768,2.768,0,0,0,0,5.537H28.288a2.774,2.774,0,0,0,2.768-2.768A2.977,2.977,0,0,0,28.288,12.1Z" transform="translate(20.16 17.961)"/><path class="b" d="M21.029,16.2h-5.26a2.768,2.768,0,0,0,0,5.537h5.26a2.768,2.768,0,0,0,0-5.537Z" transform="translate(22.99 25.211)"/></g></g></svg>